<svg xmlns="http://www.w3.org/2000/svg" width="173.969" height="133.319" viewBox="0 0 173.969 133.319">
  <g id="Group_56721" data-name="Group 56721" transform="translate(0 0)">
    <g id="Group_56723" data-name="Group 56723" transform="translate(0 0)">
      <path id="Path_59471" data-name="Path 59471" d="M200.922,110.887c-1.083-.6-1.613-1.95-2.456-3.394s-1.589-2.167-2.48-1.733a2.191,2.191,0,0,1-2.094-.169c-.482-.241-2.191-1.782-2.889-2.167s-.361-.53-.457-.842a2.176,2.176,0,0,0-.746-.939,5.379,5.379,0,0,1-1.3-2c-.53-1.155-.1-3.442-.241-4.622a17.049,17.049,0,0,0-1.372-3.635s-.072-.241,1.228-.048,2.6-.169,2.07-1.059-2.7-1.565-3.37-1.782-.867-.626-1.276-1.468a52.553,52.553,0,0,0-2.889-4.574c-.674-.915-2.143-2.841-3.082-4a11.624,11.624,0,0,1-1.685-3.9,11.117,11.117,0,0,0-1.324-2.937,45.234,45.234,0,0,0-2.817-3.611c-.987-1.059-1.806-3.322-2.5-4.6s-1.252-2.672-2.022-3.3a6.507,6.507,0,0,1-1.781-2.937,7.051,7.051,0,0,0-.506-2.046c-.241-.626-1.613-1.637-2.263-2.383s-2.432-2.793-2.721-3.274-.024-.867-.072-3.105a4.262,4.262,0,0,0-2.311-3.707c-.819-.53-4.285-2.961-4.5-3.058s-.121-.192-.289-.746-2.7-3.2-2.889-3.828-.217-3.756-.433-4.117S149.235,28,149.235,28s0-3.515-.193-5.345-2.119-3.491-2.5-3.948S145,17.384,144.9,17.192s.024-3.659.048-4.574.048-2.5-.482-2.5-1.011-.65-1.107-1.155a4.919,4.919,0,0,0-.313-1.468,9.242,9.242,0,0,0-2.263-1.565,5.714,5.714,0,0,1-1.469-1.517,7.856,7.856,0,0,1-.265,2.022c-.241.53-2.552,1.926-2.841,2.335a16.609,16.609,0,0,1-1.059,1.613c-.674.867.674,1.661.626,2.817s-.674,1.685-1.565,2.985.6,2.311.939,2.769a5.117,5.117,0,0,1,.6,1.9c.048.409.144,2.335.144,3.13s-.385,3.2-.433,4.5a5.356,5.356,0,0,1-1.107,3.033,22.092,22.092,0,0,0-2.287,2.889c-.144.481-.024,2.937-.12,3.563a10,10,0,0,1-.53,1.9c-.265.746.193,2.889.12,3.129s.144.6.241.746a1.175,1.175,0,0,1,.217.53c.024.217,0,.481,0,.843s.12.7.144,1.18a12.169,12.169,0,0,0,.578,2.576c.554,2.191,1.926,2.72,2.071,2.72a11.542,11.542,0,0,1,1.2.1c.554.072,1.035.072,1.035.193a2.007,2.007,0,0,0,.505.867,7.7,7.7,0,0,1,1.565,1.613,31.908,31.908,0,0,0,3.033,3.467c.337.217,1.589.265,2.071.578s.361,1.589.361,2.167,1.733,2.359,1.733,2.359.409.217.385,1.4c-.038,1.854,1.637,1.372,2.046.891s2.744-2.384,5.224-1.276.626,3.876.217,4.141A4.035,4.035,0,0,0,152,71.43c-.179,3.3,3.322,6.21,4.719,7.631a3.193,3.193,0,0,1,.915,3.731,3,3,0,0,0-.048,2.576c.337.506.506.963.217,1.372s-.217.7-.241,1.348-.554,2.455-.12,3.082A4.223,4.223,0,0,1,158,93.482a11.818,11.818,0,0,0,.409,3.467c.337.578-.409,1.541-.674,2s-.722,1.853-1.18,2.07a2.894,2.894,0,0,0-1.492,1.469,5.835,5.835,0,0,1-.915,1.733,9.025,9.025,0,0,0-1.782,1.276c-1.3,1.517-2.046.987-2.576.7s-1.372-1.2-1.733-1.156-2.046,2.287-2.48,2.793-3.467,4.462-3.467,4.462h60.354c.722-.578-.457-.8-1.541-1.4M147.676,8.578c.28.717-.062,1.745-.717,3.927s.53,1.808,1,2.524.686,1.808,1.06,2.182,1.465.592,1.184,1.745a5.4,5.4,0,0,0,.093,2.431c1.278.093,1.153,1.06,1.215,1.87s.592,1.278,1.4,4.145a6.714,6.714,0,0,0,4.27,4.519c1.434.623,1.745,2.368,1.839,3.21a5.417,5.417,0,0,0,.53,2.119,6.472,6.472,0,0,0,1.06,2.181c.592.623,2.711,1.278,3.054,1.839a6.673,6.673,0,0,1,.717,1.776c.312.966,1.34,1.371,2.057,1.839s1.5.81,2.057,1.184a1.744,1.744,0,0,0,1.932.156c.654-.405.841-1.683.841-1.683,1.745-2.057.436-2.493.187-2.9s.062-.686.218-1.153a10.636,10.636,0,0,0,.623-1.558c.187-.779.717-2.057,1.028-3.179a7.793,7.793,0,0,0,.5-2.493,5.151,5.151,0,0,1,.436-2.15,7.236,7.236,0,0,0,.156-2.587c0-.312.873-.312,1.278-.873s.561-.686.436-1.278-.686.031-.966-.125a6.98,6.98,0,0,1-1.028-1.995c-.187-.5-.5-1.309-.748-1.963a20.624,20.624,0,0,0-1.091-2.462c-.405-.717-1.995-4.456-2.306-5.2s-1.808-3.864-2.026-4.238,0-.592.031-1.153-.156-.748-.467-1.34a7.8,7.8,0,0,1-.405-2.587c-.031-.81-2.218,1.268-3.335,1.714a8.015,8.015,0,0,1-5.236.093c-1.5-.439-2.992-1.652-4.675-.686-1.314.754-2.68,2.088-4.332,1.558a25.925,25.925,0,0,0-3.9-.81s1.745.686,2.026,1.4M128.321,7.486c.268,1.042,1.447,1.043,2.019,2.355,1.008,2.314-.707,1.077-.606,3.869a2.4,2.4,0,0,0,2.557,2.59s-.27-.337.74-1.413c1.108-1.182,1.11-2.052.707-2.893a2.618,2.618,0,0,1-.3-1.85c.1-.572,1.043-1.009,1.043-1.783s.909-.808,1.379-1.48A22.241,22.241,0,0,1,137.64,5.1c.438-.5.1-1.547-.1-1.783s-1.682-.5-2.287-.875a37.735,37.735,0,0,0-3.634-1.379c-1.009-.236-1.009.707-1.043,1.312a1.84,1.84,0,0,0,.673,1.413c.37.37.4.706.168.807a2.854,2.854,0,0,1-1.11.135c-.572,0-.606-.168-1.009-.4a10.114,10.114,0,0,0-1.11-.639c-.337-.135-.034-.976-.4-1.514s-1.077-.067-1.649.336.135,1.648.4,2.052a10.313,10.313,0,0,1,1.783,2.927m15.507,100.025c.492-.753,3.793-3.822,4.777-3.909s1.274,1.071,1.65,1.129a4.278,4.278,0,0,0,1.593-.376,5.625,5.625,0,0,0,1.39-1.679c.492-.782,1.013-1.8,1.274-2.287s.869-.637,1.187-.926a4.842,4.842,0,0,0,1.014-1.564c.318-.724-.058-1.505-.261-2.316a6.351,6.351,0,0,1-.145-1.911,3.394,3.394,0,0,0-.2-1.534,6.079,6.079,0,0,1-.637-1.361c-.2-.608.55-1.071.637-1.534a3.648,3.648,0,0,0,0-1.593c-.145-.695.174-.782.232-1.332s-.232-.753-.463-1.158-.058-.9-.058-1.361.434-.753.637-1.477-.145-1.1-.492-1.824a6.577,6.577,0,0,0-1.622-1.766c-.666-.637-1.477-2.056-2.258-2.953a10.629,10.629,0,0,1-1.708-4.371c-.319-1.621.579-2.114,1.042-3.04s1.708-1.274,2.2-1.94-.087-1.245-.869-1.332-1.013-.29-3.648,1.419-3.156.405-3.793-.579-.637-1.882-1.361-3.185-.232-1.3-.492-1.563l-.955-.955a26.612,26.612,0,0,0-2.953-2.461c-.753-.492-1.564-2.432-2.085-2.982a6.557,6.557,0,0,0-2-1.65c-.782-.319-.579-.145-1.361-.261s-1.622-1.158-2.4-1.94S131,48.563,131,47.869s-.087-1.013-.55-1.3a.757.757,0,0,1-.145-1.042c.115,0,.289-.347.2-.869a5.088,5.088,0,0,0-.579-1.766c-.29-.405.029-.579.087-1.129s-.058-1.65,0-2.49.318-1.708.405-3.446a4.568,4.568,0,0,1,.926-2.982c.521-.753,1.622-2.287,2.056-2.9a3.759,3.759,0,0,0,.782-2.085c.087-.955.058-3.938-.029-6.254s-1.013-2.693-1.708-3.214a5.864,5.864,0,0,0-2.2-1.013c-.55-.087-1.969-1.535-2.172-1.679a1.075,1.075,0,0,1-.376-.666c-.087-.319.348-.55.492-1.158a9.561,9.561,0,0,0,.29-1.448,8.674,8.674,0,0,0,.087-1.737c-1.245-.869-2.432-4.285-2.432-4.285a8.6,8.6,0,0,1-2-2.519c-.721-.582-1.184.026-1.795.469a16.561,16.561,0,0,0-1.83,2.385c-.444.527-.86.305-1.248.416a5.484,5.484,0,0,0-1.359.388,5.66,5.66,0,0,0-1.553,1.109,5.312,5.312,0,0,1-2.939,1.553c-1.747.5-2.524.111-4.382-.055s-3.244-1.553-3.91-1.941a3.215,3.215,0,0,0-3.466-.222,3.567,3.567,0,0,1-3.161.194c-.915-.388-1.109-2.052-1.581-2.191s-.8-.222-1.692.776-1.331.5-1.608.277-1.054-1.581-1.692-1.72a15.286,15.286,0,0,0-2.523.277c-.61,0-1.137-.527-1.664-1s-.86-1.442-1.276-1.553-.61.527-.887.749-.749.028-1.165.028a5.078,5.078,0,0,1-1.442-.361,10.6,10.6,0,0,1-2.385-1.608A2.084,2.084,0,0,0,78.725,1.5c-.887.111-.471.305-1.359.416a4.254,4.254,0,0,1-1.83-.111c-.638-.139-.832-.582-1.248-.86s-.859.083-1.359.194a13.065,13.065,0,0,1-1.8.277,1.592,1.592,0,0,0-1.054.333,3.177,3.177,0,0,1-1.581.388c-.61,0-.471-.166-.8-.5A6.556,6.556,0,0,1,66.939.532c-.471-.693-.749-.61-1.137-.3a7.689,7.689,0,0,0-2.5,3.494c-.416,1.692,1.386,4.187,1.525,4.6a7.771,7.771,0,0,1,.333,2.828A7.237,7.237,0,0,1,64,13.565a25.317,25.317,0,0,1-1.5,2.357c-1.109,1.692-.028,5.519,1.386,7.57a9.319,9.319,0,0,1,1.328,4.9v83.9h74.731s.376,0,.666-.608a2.956,2.956,0,0,1,1.013-1.042,9.825,9.825,0,0,1,.666-.839,22.594,22.594,0,0,0,1.535-2.287" transform="translate(-46.576 0)" fill="#fff"/>
      <g id="Group_56724" data-name="Group 56724" transform="translate(19.931 35.396)">
        <path id="Path_59472" data-name="Path 59472" d="M202.416,376.891h-2.433v.846a4.8,4.8,0,0,1-1.808,3.673,6.674,6.674,0,0,1-4.6,1.6H193.4v-2.647a3.341,3.341,0,0,0,3.013-1.566,5.034,5.034,0,0,0,.826-2.971l.045-7.6a6.1,6.1,0,0,0-1.138-3.583h4.977a5.6,5.6,0,0,0-1.138,3.583v7.076h2.433Z" transform="translate(-165.113 -309.132)" fill="#006f53"/>
        <path id="Path_59473" data-name="Path 59473" d="M230.573,376.891h-7.186v-1.585H226V368.23a6.382,6.382,0,0,0-1.094-3.583h4.977a5.89,5.89,0,0,0-1.138,3.583v7.076h1.83Zm-3.749,2.395q0,1.116-1.384,1.116-1.362,0-1.361-1.116,0-1.1,1.361-1.1a1.5,1.5,0,0,1,.971.333.969.969,0,0,1,.413.765m3.1,0q0,1.116-1.361,1.116-1.384,0-1.384-1.116,0-1.1,1.384-1.1a1.467,1.467,0,0,1,.949.333.969.969,0,0,1,.413.765" transform="translate(-187.624 -309.131)" fill="#006f53"/>
        <path id="Path_59474" data-name="Path 59474" d="M265.72,364.585H246.482V363h13.859l-.045-4.249q-.067-4.825-4.129-4.825a3.646,3.646,0,0,0-2.968,1.26,4.1,4.1,0,0,0-.915,2.719,5.364,5.364,0,0,0,1.138,3.133h-4.977a7.487,7.487,0,0,0,1.138-3.637,4.856,4.856,0,0,1,2.109-3.637,7.7,7.7,0,0,1,4.7-1.422,7.224,7.224,0,0,1,4.954,1.728,4.955,4.955,0,0,1,1.674,3.907v5.059l2.7-.036Zm-8.213-15.232a.985.985,0,0,1-.413.783,1.5,1.5,0,0,1-.971.333,1.469,1.469,0,0,1-.949-.333.983.983,0,0,1-.413-.783q0-1.1,1.362-1.1a1.5,1.5,0,0,1,.971.333.97.97,0,0,1,.413.765" transform="translate(-204.961 -296.825)" fill="#006f53"/>
        <path id="Path_59475" data-name="Path 59475" d="M324.477,357.808H317.2v-1.584h3.437V342.792a5.861,5.861,0,0,0-1.138-3.565h4.977a6.349,6.349,0,0,0-1.094,3.565v11.433a6.377,6.377,0,0,0,1.094,3.583" transform="translate(-258.049 -290.049)" fill="#006f53"/>
        <path id="Path_59476" data-name="Path 59476" d="M359.417,357.916H354.44a6.133,6.133,0,0,0,1.093-3.421v-11.7a6.133,6.133,0,0,0-1.093-3.421h4.977a5.789,5.789,0,0,0-1.138,3.583v11.379a5.789,5.789,0,0,0,1.138,3.583" transform="translate(-286.004 -290.157)" fill="#006f53"/>
        <path id="Path_59477" data-name="Path 59477" d="M236.053,291.21h-1.807v.755a4.651,4.651,0,0,1-1.343,3.278,4.482,4.482,0,0,1-3.416,1.43h-.133v-2.362a2.4,2.4,0,0,0,2.238-1.4,5.177,5.177,0,0,0,.614-2.651l.033-6.781a6.223,6.223,0,0,0-.845-3.2h3.7a5.7,5.7,0,0,0-.846,3.2V289.8h1.807Z" transform="translate(-192.104 -245.801)" fill="#006f53"/>
        <path id="Path_59478" data-name="Path 59478" d="M256.991,291.21H252.3V289.8h1.94v-6.315a6.535,6.535,0,0,0-.812-3.2h3.7a6,6,0,0,0-.846,3.2V289.8h.713Zm14.359,0H256.344V289.8h.448q1.111-5.656,2.827-7.584a6.67,6.67,0,0,1,5.248-1.928,4.9,4.9,0,0,1,3.6,1.494,4.837,4.837,0,0,1,1.492,3.535V289.8l1.393.032Zm-3.382-1.414V286a4.8,4.8,0,0,0-1.028-3.149,2.906,2.906,0,0,0-1.186-.812,3.794,3.794,0,0,0-1.434-.345,4.935,4.935,0,0,0-4.742,2.6,6.882,6.882,0,0,0-.779,3.262V289.8Z" transform="translate(-209.327 -245.801)" fill="#006f53"/>
        <path id="Path_59479" data-name="Path 59479" d="M337.163,285.748a5.7,5.7,0,0,1-1.426,3.953,2.184,2.184,0,0,1-.547.386,7.345,7.345,0,0,1-4.046,1.125h-6.549v-1.382l2.421-.032v-4.483a4.943,4.943,0,0,1,1.244-3.487,4.746,4.746,0,0,1,3.648-1.543,4.914,4.914,0,0,1,3.814,1.583,5.55,5.55,0,0,1,1.443,3.88m-2.205-.257q0-3.792-2.885-3.792a2.642,2.642,0,0,0-2.454,1.446,6.124,6.124,0,0,0-.613,2.892v3.76h2.9a2.629,2.629,0,0,0,2.437-1.446,5.934,5.934,0,0,0,.614-2.86" transform="translate(-263.599 -245.802)" fill="#006f53"/>
        <path id="Path_59480" data-name="Path 59480" d="M286.93,240.1H284.5a2.014,2.014,0,0,1-.721-.162,1.845,1.845,0,0,1-.624-.371,2.09,2.09,0,0,1,0-2.766,1.83,1.83,0,0,1,1.394-.552,1.793,1.793,0,0,1,1.351.544,1.7,1.7,0,0,1,.456,1.229v1.58h.578Zm-1.309-.5v-1.325a1.974,1.974,0,0,0-.237-1.008.963.963,0,0,0-.889-.521q-1.071,0-1.071,1.337a1.953,1.953,0,0,0,.237,1,.959.959,0,0,0,.883.521Zm-1.248-4.293a.326.326,0,0,1-.113.246.376.376,0,0,1-.265.1.369.369,0,0,1-.259-.1.325.325,0,0,1-.113-.246.32.32,0,0,1,.113-.241.368.368,0,0,1,.259-.1q.377,0,.377.345m.858,0a.325.325,0,0,1-.113.246.369.369,0,0,1-.259.1.376.376,0,0,1-.265-.1.325.325,0,0,1-.113-.246q0-.345.377-.345a.369.369,0,0,1,.259.1.32.32,0,0,1,.113.241" transform="translate(-232.095 -211.783)" fill="#006f53"/>
        <path id="Path_59481" data-name="Path 59481" d="M300.143,243.975h-1.722v-.5h.712v-2.226a2.233,2.233,0,0,0-.3-1.127h1.357a2.053,2.053,0,0,0-.31,1.127v2.226h.262Zm3.128,0h-3.25v-.5h.633v-2.226a2.23,2.23,0,0,0-.3-1.127h1.357a2.052,2.052,0,0,0-.31,1.127v2.226h.724v-2.226a2.053,2.053,0,0,0-.31-1.127h1.369a2.03,2.03,0,0,0-.323,1.127v2.226h.408Z" transform="translate(-243.951 -215.653)" fill="#006f53"/>
        <path id="Path_59482" data-name="Path 59482" d="M318.671,243.975h-1.722v-.5h.712v-2.226a2.233,2.233,0,0,0-.3-1.127h1.357a2.052,2.052,0,0,0-.31,1.127v2.226h.262Zm2.982,0h-3.159v-.5h.615v-2.226a2.233,2.233,0,0,0-.3-1.127h1.357a2.053,2.053,0,0,0-.31,1.127v2.226h.749v-2.226a1.921,1.921,0,0,0-.317-1.127h1.363a2.085,2.085,0,0,0-.3,1.127v1.6a2.2,2.2,0,0,0,.3,1.127" transform="translate(-257.86 -215.653)" fill="#006f53"/>
        <path id="Path_59483" data-name="Path 59483" d="M341.91,239.3h-.536a1.92,1.92,0,0,1-.487,1.308,1.636,1.636,0,0,1-1.309.606,2,2,0,0,1-1.978-1.195h.858a1.607,1.607,0,0,0,1.034.385q.882,0,1.132-1.1h-1.193a1.8,1.8,0,0,1-.685-.156,1.726,1.726,0,0,1-.587-.377,1.886,1.886,0,0,1-.523-1.382,1.911,1.911,0,0,1,.53-1.367,1.84,1.84,0,0,1,1.4-.558,1.772,1.772,0,0,1,1.333.544,1.691,1.691,0,0,1,.474,1.229V238.8h.536Zm-2.775-4.859h-.426c.016-.045.045-.111.085-.2h-.012a.293.293,0,0,0-.286-.2q-.335,0-.335.408,0,.476.335.476h.2a.734.734,0,0,0,.371-.091v.244H337.7v-.244a.7.7,0,0,0,.4.091l-.03-.011a.706.706,0,0,1-.158-.43.572.572,0,0,1,.167-.422.583.583,0,0,1,.429-.167.547.547,0,0,1,.414.159,3.129,3.129,0,0,0,.213.385m1.491,4.361v-1.325a1.976,1.976,0,0,0-.237-1.008.942.942,0,0,0-.883-.521q-1.059,0-1.059,1.337a2.088,2.088,0,0,0,.225,1.019.972.972,0,0,0,.895.51q.176,0,.535-.011Z" transform="translate(-273.363 -210.981)" fill="#006f53"/>
        <path id="Path_59484" data-name="Path 59484" d="M357.74,242.05a1.964,1.964,0,0,1-.524,1.393.8.8,0,0,1-.2.136,2.778,2.778,0,0,1-1.485.4h-2.4v-.487l.889-.011V241.9a1.7,1.7,0,0,1,.456-1.229,1.777,1.777,0,0,1,1.339-.544,1.84,1.84,0,0,1,1.4.558,1.912,1.912,0,0,1,.53,1.368m-.81-.091q0-1.337-1.059-1.337a.977.977,0,0,0-.9.51,2.088,2.088,0,0,0-.225,1.019v1.325h1.065a.972.972,0,0,0,.895-.51,2.024,2.024,0,0,0,.225-1.008" transform="translate(-285.018 -215.653)" fill="#006f53"/>
        <path id="Path_59485" data-name="Path 59485" d="M126.816,145.212a3.774,3.774,0,0,0-.833-2.181c-1.672-1.835-4.792-.853-6.8-.247-4.163,1.26-7.7,4.474-10.565,7.622-2.639,2.9-5.991,6.845-6.264,10.952-.247,3.719-.494,4.143-.6,4.225s-.256.215-.354.08a13.059,13.059,0,0,0-10.993-5.475c-.236.015-.227-.29.005-.3a13.433,13.433,0,0,1,11.256,5.555c-.009-.031-.014-.055-.014-.055s-.05-3.714-4.538-7.018a45.752,45.752,0,0,0-12.036-6.071c-1.29-.453-3.208-.563-4.235.514-.926.971-.977,2.563-.869,3.812.5,5.8.5,4.612,1,6.233s3.428,3.927,8.477,3.927,6.736.189,8.382.282,6.36.765,5.673,7.281c-.466,4.427-1.237,8.816-1.7,13.242-.147,1.41-.268,2.822-.459,4.227-.271,1.995-.641,3.977-.877,5.977-.265,2.243-.264,4.525-.465,6.777,0,0-.57,9.272,2.948,10.461,1.356.458,2.583.911,3.006-.888.6-2.536-.072-5.418-.183-7.994-.121-2.813-.125-5.629-.123-8.444,0-4.35-.061-8.7-.051-13.051,0-.886.072-1.777.051-2.663-.074-3.146,0-5.111,0-5.111a5.278,5.278,0,0,1,.763-2.535c-1.089-4.989-.758-10.944,1.7-15.4a30.453,30.453,0,0,1,7.036-8.615,12.7,12.7,0,0,1,3.231-2.131c.124-.05.436.044.209.134a13.173,13.173,0,0,0-3.733,2.589,27.558,27.558,0,0,0-7.035,9.4,23.173,23.173,0,0,0-1.492,10.337,29.941,29.941,0,0,0,.38,3.2,9.666,9.666,0,0,1,2.739-2.648,56.986,56.986,0,0,0,12.212-11.228c2.345-2.826,5.243-5.974,5.443-9.835a26.451,26.451,0,0,0-.206-3.96c-.031-.319-.057-.646-.1-.971" transform="translate(-79.942 -141.972)" fill="#006f53"/>
      </g>
      <g id="Group_56722" data-name="Group 56722" transform="translate(0 118.659)">
        <path id="Path_59486" data-name="Path 59486" d="M406.08,495.677a4.1,4.1,0,0,1-1.233,3.1,4.251,4.251,0,0,1-3.067,1.185,4.862,4.862,0,0,1-2.113-.4,1.785,1.785,0,0,1-1.13-1.713,6.092,6.092,0,0,1,.763-2.615q.837-1.7,1.746-1.866a14.066,14.066,0,0,0-.851,1.178,2.731,2.731,0,0,0-.381,1.392,1.628,1.628,0,0,0,.763,1.468,2.968,2.968,0,0,0,1.629.4,8.011,8.011,0,0,0,1.438-.153,2.769,2.769,0,0,0,1.321-.459,6.837,6.837,0,0,0-1.189-2.784l1.16-1.759a4.71,4.71,0,0,1,1.145,3.028m-1.365-5.506a4.484,4.484,0,0,1-.778.9q-.646.628-.924.627a6.438,6.438,0,0,1-1.658-1.1,4.207,4.207,0,0,1,.778-.987q.66-.7.851-.7a17.3,17.3,0,0,1,1.732,1.254" transform="translate(-299.176 -485.682)" fill="#fff"/>
        <path id="Path_59487" data-name="Path 59487" d="M437.892,491.774h-2.774l-.617-7.693q.382-.6,1.218-1.667.176,1.239.352,3.533.19,2.493.323,3.564.073.092.66.122h.836Z" transform="translate(-326.174 -480.8)" fill="#fff"/>
        <path id="Path_59488" data-name="Path 59488" d="M448.973,505.681h-1.394a1.318,1.318,0,0,0-.205-.52q-.132.153-.279.306-.206.214-.308.214h-1.453V503.54h1.893a1.688,1.688,0,0,0,.191-.887q0-.245.543-.872l.748-.841.059.031.014.214a4.138,4.138,0,0,1-.22,1.132q-.279.933-.338,1.223h.748Z" transform="translate(-334.305 -494.707)" fill="#fff"/>
        <path id="Path_59489" data-name="Path 59489" d="M465.091,505.82h-1.512q-.088-.214-.235-.52l-.338.52h-2.421a2.1,2.1,0,0,0-.352-.337l-.352.337h-1.894v-2.141h.851a4.781,4.781,0,0,0,.675.077q.586,0,.587-.612a1.255,1.255,0,0,0-.03-.26,5.385,5.385,0,0,1,1.35-1.759l.044.29a12.049,12.049,0,0,1-.264,2.249,10.93,10.93,0,0,0,1.248.03,1.711,1.711,0,0,0,.117-.9l.5-.765a3.455,3.455,0,0,1,.572-.688h.1l.073,1.453a1.066,1.066,0,0,0,.719.887h.557Z" transform="translate(-343.805 -494.846)" fill="#fff"/>
        <path id="Path_59490" data-name="Path 59490" d="M489.113,489.759a9.012,9.012,0,0,1-.147,1.5q-.132.749-.264,1.483h-4.461V490.6h3.581a14.191,14.191,0,0,0-1.174-2.2l1.042-1.881a5.8,5.8,0,0,1,1.424,3.242m-1.057-5.169a3,3,0,0,1-.572.765q-.528.581-.646.734a16.878,16.878,0,0,0-1.834-.872,6.965,6.965,0,0,1,.66-.857q.573-.657.719-.658.029,0,.756.421a5.256,5.256,0,0,0,.917.466" transform="translate(-363.513 -481.767)" fill="#fff"/>
        <path id="Path_59491" data-name="Path 59491" d="M511.518,525.706a2.263,2.263,0,0,1-.352.566h-.059a3.41,3.41,0,0,0-1.864.78.97.97,0,0,1,.308-.458l.441-.291A3.652,3.652,0,0,1,509.2,526v-.077a1.465,1.465,0,0,1,.381-.979,1.136,1.136,0,0,1,.881-.444.577.577,0,0,1,.323.122q.176.122.176.245a1.793,1.793,0,0,1-.323.535q-.4-.352-.514-.352a1.362,1.362,0,0,0-.484.276q.147.29.866.367.205.015,1.013.015" transform="translate(-382.248 -512.392)" fill="#fff"/>
        <path id="Path_59492" data-name="Path 59492" d="M516.517,483.744q-.323.52-.983,1.514a.8.8,0,0,1-.558-.077l-.044.046a4.587,4.587,0,0,1-1.115,2.386q.381.872.455,1.1a3.664,3.664,0,0,1,.191,1.178q0,.352-.117,1.468h-4.887l.749-2.141a3.2,3.2,0,0,0,2.113-1.239q-1.027-1.392-1.511-1.453l-.441.551q-.9-.536-1.79-1.056-1.2-.78-1.2-1.453a3.593,3.593,0,0,1,.294-1.1q.22-.551.44-1.116h.25a12.428,12.428,0,0,1,4.975,4.451,2.319,2.319,0,0,0,.484-1.682,1.389,1.389,0,0,0-.44-1.086l-.029-.138,1.336-2.034a1.31,1.31,0,0,0,.381.917,3.461,3.461,0,0,0,.719.413,1.829,1.829,0,0,1,.734.55m-3.2,5.751q-.147-.367-.191-.459a1.18,1.18,0,0,0-.264-.4,6.85,6.85,0,0,1-.866.841q.352.031.7.031.323,0,.617-.015" transform="translate(-380.878 -480.386)" fill="#fff"/>
        <path id="Path_59493" data-name="Path 59493" d="M550.187,490.649a5.631,5.631,0,0,1-1.042,3.472l-.807-6.24a3.489,3.489,0,0,1,.543-1.3q.425-.78.763-1.285a34.11,34.11,0,0,1,.543,5.353" transform="translate(-411.628 -482.963)" fill="#fff"/>
        <path id="Path_59494" data-name="Path 59494" d="M573.256,481.108q-.279.337-.558.688a3.129,3.129,0,0,1-.631.612l-1.6-.857-.851.826a5.588,5.588,0,0,1-1.614-.9,15.261,15.261,0,0,1,1.189-1.3q.337.245.69.489a2.072,2.072,0,0,0,.734.367q.661-.581.984-.887Zm3.346,6.821v2.141h-1.849a1.056,1.056,0,0,1-1-.734q-.191-.657-.4-1.316a2.641,2.641,0,0,0-.543.918q-.294.673-.7.673a7.906,7.906,0,0,1-1.688-.275,9.183,9.183,0,0,0-1.717-.306,8.746,8.746,0,0,1,.719-2.34,3.6,3.6,0,0,1,1.16-1.239l1.967-1.193q-.015-.076-.147-.6l1.189-2.05q.264.948.6,2.929t.6,2.975a1.967,1.967,0,0,0,.954.413Zm-3.464-.872-.367-1.729q-.177.245-.382.513a1.721,1.721,0,0,1-.418.405c-.142.092-.291.179-.448.26a.7.7,0,0,0-.323.306Z" transform="translate(-426.391 -479.096)" fill="#fff"/>
        <path id="Path_59495" data-name="Path 59495" d="M606.245,503.655h-1.511q-.837,0-1.145-1.223l-.7,1.223h-2.92v-2.141h3.375a3.282,3.282,0,0,0,.073-.872,2.153,2.153,0,0,1,.44-1.361q.485-.519.984-1.04v.933l-.176,1.545q-.074.628.792.8h.792Zm-.851,1.79a4.089,4.089,0,0,1-1.086,1.346l-1.423-.872a10.144,10.144,0,0,0-.763.841,6.417,6.417,0,0,1-1.453-.9,7.39,7.39,0,0,1,1.042-1.315,3.552,3.552,0,0,0,1.306.826,1.9,1.9,0,0,0,.455-.4q.337-.367.441-.459Z" transform="translate(-450.384 -492.681)" fill="#fff"/>
        <path id="Path_59496" data-name="Path 59496" d="M630.462,505.221H628.73a1.71,1.71,0,0,0-.279.52q-.146.351-.323.4l-3.537-2.08a.542.542,0,0,0-.235.4,2.2,2.2,0,0,1-.191.5.673.673,0,0,1-.6.26h-.939V503.08h1.732l.22-.168a4.48,4.48,0,0,1,1.247-1.789,2.957,2.957,0,0,1,1.952-.8q.441,0,.528.214.015.23.059.627a3.5,3.5,0,0,0,.536,1.124q.492.788.741.788h.822Zm-3.141-2.279q0-.78-.47-.78a1.884,1.884,0,0,0-.792.2,5.829,5.829,0,0,0,1.233.719q.029-.168.029-.138" transform="translate(-467.396 -494.247)" fill="#fff"/>
        <path id="Path_59497" data-name="Path 59497" d="M658.337,492.328h-1.365q-.954,0-1.306-1.285l-.7,1.285h-2.906v-2.141h3.375a3.768,3.768,0,0,0,.1-.948,2.384,2.384,0,0,1,.074-.78,3.593,3.593,0,0,1,.6-.857q.352-.382.719-.749v1.086a4.291,4.291,0,0,1-.088.7,4.268,4.268,0,0,0-.088.7q0,.674.984.841h.6Zm-1.468-8.091q-.44.612-.631.857a2.78,2.78,0,0,1-.763.7l-1.893-1.025.646-.856a5.263,5.263,0,0,1,.734-.765Z" transform="translate(-489.489 -481.353)" fill="#fff"/>
        <path id="Path_59498" data-name="Path 59498" d="M680.471,488.808a9.2,9.2,0,0,1-.646,3.013h-4.872v-2.141h4.109a3.921,3.921,0,0,0-1.174-2.217l1.1-2q.469.107,1,1.468a5.749,5.749,0,0,1,.484,1.881m.176-5.4a5.185,5.185,0,0,1-1.174,1.331l-1.6-.857a8.246,8.246,0,0,0-.822.826,5.3,5.3,0,0,1-1.629-.9,9.571,9.571,0,0,1,1.159-1.3,3.824,3.824,0,0,0,1.424.826,2.3,2.3,0,0,0,.528-.4,6.11,6.11,0,0,1,.484-.459Z" transform="translate(-506.678 -480.846)" fill="#fff"/>
        <path id="Path_59499" data-name="Path 59499" d="M5.436,483.039q-.289.337-.577.688a3.2,3.2,0,0,1-.653.612l-1.655-.857-.881.826a5.833,5.833,0,0,1-1.67-.9,15.476,15.476,0,0,1,1.23-1.3q.349.245.714.489a2.168,2.168,0,0,0,.759.367q.684-.581,1.018-.887ZM8.9,489.86V492H6.985a1.09,1.09,0,0,1-1.032-.734q-.2-.657-.41-1.316a2.63,2.63,0,0,0-.562.918q-.3.674-.729.673a8.439,8.439,0,0,1-1.746-.275,9.812,9.812,0,0,0-1.777-.306,8.544,8.544,0,0,1,.744-2.34,3.655,3.655,0,0,1,1.2-1.239l2.035-1.193q-.015-.076-.152-.6l1.23-2.05q.273.948.623,2.929t.623,2.975a2.072,2.072,0,0,0,.987.413Zm-3.584-.872-.38-1.728q-.182.245-.395.513a1.765,1.765,0,0,1-.433.405q-.22.138-.463.26a.709.709,0,0,0-.334.306Z" transform="translate(0 -480.545)" fill="#fff"/>
        <path id="Path_59500" data-name="Path 59500" d="M39.57,505.585H38.006q-.866,0-1.184-1.223l-.729,1.223H33.071v-2.141h3.493a3.163,3.163,0,0,0,.076-.872,2.105,2.105,0,0,1,.455-1.361q.5-.519,1.018-1.04v.933l-.182,1.545q-.076.628.82.8h.82Zm-.881,1.79a4.129,4.129,0,0,1-1.124,1.346l-1.473-.872a10.244,10.244,0,0,0-.79.841,6.683,6.683,0,0,1-1.5-.9,7.434,7.434,0,0,1,1.078-1.315,3.7,3.7,0,0,0,1.352.826,1.95,1.95,0,0,0,.47-.4q.349-.367.456-.459Z" transform="translate(-24.826 -494.13)" fill="#fff"/>
        <path id="Path_59501" data-name="Path 59501" d="M60.53,507.612H59.087a1.286,1.286,0,0,0-.213-.52q-.136.153-.288.306-.212.214-.319.214h-1.5v-2.141h1.959a1.643,1.643,0,0,0,.2-.887q0-.245.562-.872l.774-.841.061.031.015.214a4.022,4.022,0,0,1-.228,1.132q-.289.933-.349,1.223h.774Z" transform="translate(-42.612 -496.157)" fill="#fff"/>
        <path id="Path_59502" data-name="Path 59502" d="M75.6,505.3a3.573,3.573,0,0,1-.235,1.277L74.9,507.8H72.107a1.328,1.328,0,0,0-.228-.306l-.3.306H70.285v-2.141H71.8a5.175,5.175,0,0,1,.091-.581,4.762,4.762,0,0,1,.637-1.009q.577-.749.851-.7a18.122,18.122,0,0,0-.547,2.294h1.351l.031-.03c0-.061-.007-.166-.023-.314s-.022-.262-.022-.344a2.5,2.5,0,0,1,.6-1.032q.6-.772.828-.818Z" transform="translate(-52.762 -496.341)" fill="#fff"/>
        <path id="Path_59503" data-name="Path 59503" d="M100.166,493.705H97.3l-.637-7.693q.395-.6,1.26-1.667.183,1.239.364,3.533.2,2.493.334,3.564.075.092.683.122h.866Z" transform="translate(-72.56 -482.25)" fill="#fff"/>
        <path id="Path_59504" data-name="Path 59504" d="M111.631,507.612h-1.443a1.286,1.286,0,0,0-.213-.52q-.136.153-.288.306-.212.214-.319.214h-1.5v-2.141h1.959a1.643,1.643,0,0,0,.2-.887q0-.245.562-.872l.774-.841.061.031.015.214a4.022,4.022,0,0,1-.228,1.132q-.288.933-.349,1.223h.774Z" transform="translate(-80.973 -496.157)" fill="#fff"/>
        <path id="Path_59505" data-name="Path 59505" d="M126.7,505.3a3.567,3.567,0,0,1-.235,1.277L126,507.8h-2.794a1.343,1.343,0,0,0-.228-.306l-.3.306h-1.291v-2.141H122.9a5.218,5.218,0,0,1,.091-.581,4.765,4.765,0,0,1,.637-1.009q.577-.749.85-.7a18.121,18.121,0,0,0-.547,2.294h1.352l.03-.03c0-.061-.007-.166-.023-.314s-.023-.262-.023-.344a2.5,2.5,0,0,1,.6-1.032q.6-.772.828-.818Z" transform="translate(-91.122 -496.341)" fill="#fff"/>
        <path id="Path_59506" data-name="Path 59506" d="M147.9,477.118a2.346,2.346,0,0,1-.349.566h-.061a3.653,3.653,0,0,0-1.913.78.678.678,0,0,1,.3-.428q.213-.168.441-.321a3.223,3.223,0,0,1-.82-.306v-.046a1.318,1.318,0,0,1,.364-.979,1.219,1.219,0,0,1,.941-.444q.516,0,.517.352,0-.015-.319.5a1.8,1.8,0,0,0-.532-.306,2.057,2.057,0,0,0-.546.26,1.408,1.408,0,0,0,.957.352q.516.015,1.017.015" transform="translate(-109.222 -475.94)" fill="#fff"/>
        <path id="Path_59507" data-name="Path 59507" d="M155.878,485.674q-.334.52-1.017,1.514a.851.851,0,0,1-.577-.077l-.046.046a4.516,4.516,0,0,1-1.154,2.386q.395.872.471,1.1a3.564,3.564,0,0,1,.2,1.178q0,.352-.121,1.468h-5.056l.774-2.141a3.336,3.336,0,0,0,2.186-1.239q-1.062-1.392-1.564-1.453l-.455.551q-.926-.536-1.853-1.056-1.245-.78-1.245-1.453a3.492,3.492,0,0,1,.3-1.1q.227-.551.456-1.116h.258a12.725,12.725,0,0,1,5.148,4.451,2.268,2.268,0,0,0,.5-1.682,1.366,1.366,0,0,0-.455-1.086l-.03-.138,1.382-2.034a1.291,1.291,0,0,0,.395.917,3.608,3.608,0,0,0,.744.413,1.891,1.891,0,0,1,.759.551m-3.31,5.751q-.152-.367-.2-.459a1.179,1.179,0,0,0-.273-.4,6.965,6.965,0,0,1-.9.841q.364.031.729.031.334,0,.638-.015" transform="translate(-109.914 -481.835)" fill="#fff"/>
        <path id="Path_59508" data-name="Path 59508" d="M190.717,492.58a5.5,5.5,0,0,1-1.078,3.472l-.835-6.24a3.428,3.428,0,0,1,.562-1.3q.44-.78.79-1.285a32.99,32.99,0,0,1,.562,5.353" transform="translate(-141.731 -484.413)" fill="#fff"/>
        <path id="Path_59509" data-name="Path 59509" d="M215.582,493.705h-2.87l-.638-7.693q.395-.6,1.261-1.667.182,1.239.365,3.533.2,2.493.334,3.564c.05.061.278.1.683.122h.866Z" transform="translate(-159.201 -482.25)" fill="#fff"/>
        <path id="Path_59510" data-name="Path 59510" d="M229.719,494.258h-1.412q-.987,0-1.351-1.285l-.729,1.285H223.22v-2.141h3.493a3.67,3.67,0,0,0,.106-.948,2.323,2.323,0,0,1,.076-.78,3.6,3.6,0,0,1,.623-.857q.364-.382.744-.749v1.086a4.132,4.132,0,0,1-.091.7,4.155,4.155,0,0,0-.091.7q0,.674,1.017.841h.623Zm-1.519-8.091q-.456.612-.653.857a2.847,2.847,0,0,1-.79.7L224.8,486.7l.668-.856a5.368,5.368,0,0,1,.759-.765Z" transform="translate(-167.568 -482.802)" fill="#fff"/>
        <path id="Path_59511" data-name="Path 59511" d="M254.052,491.609v2.141h-1.367q-1,0-1.382-1.285l-.729,1.285h-2.992v-2.141h3.462a2.769,2.769,0,0,0,.114-.91,2.339,2.339,0,0,1,.083-.788,3.224,3.224,0,0,1,.623-.841l.729-.765v1.025a4.424,4.424,0,0,1-.091.734,4.389,4.389,0,0,0-.091.719q0,.75,1.078.826Zm-.668-6.271q-.911,1.316-1.215,1.315a12.484,12.484,0,0,1-1.655-.856q-.3.321-.881.826a2.624,2.624,0,0,1-.85-.367,7.371,7.371,0,0,1-.8-.536,7.818,7.818,0,0,1,.577-.688,4.158,4.158,0,0,1,.653-.6,3.832,3.832,0,0,0,1.458.841,1.818,1.818,0,0,0,.5-.382q.531-.474.532-.489Z" transform="translate(-185.857 -482.295)" fill="#fff"/>
        <path id="Path_59512" data-name="Path 59512" d="M279.567,507.152h-1.792a1.694,1.694,0,0,0-.289.52q-.152.351-.334.4l-3.66-2.08a.54.54,0,0,0-.243.4,2.156,2.156,0,0,1-.2.5.706.706,0,0,1-.623.26h-.972v-2.141h1.792l.228-.168a4.481,4.481,0,0,1,1.291-1.789,3.117,3.117,0,0,1,2.02-.8q.455,0,.547.214.015.23.061.627a3.45,3.45,0,0,0,.554,1.124q.509.788.767.788h.85Zm-3.25-2.279q0-.78-.486-.78a2.006,2.006,0,0,0-.82.2,6.093,6.093,0,0,0,1.275.719c.02-.112.03-.158.03-.138" transform="translate(-203.78 -495.697)" fill="#fff"/>
        <path id="Path_59513" data-name="Path 59513" d="M307.892,500.794v2.141h-.729a7.315,7.315,0,0,1-.881,1.851,1.992,1.992,0,0,1-1.655.964,2.033,2.033,0,0,1-1.716-.887,4.108,4.108,0,0,1-.7-1.927h-.729v-2.141h1.382q2.156-4.343,4.085-4.145v.979a4.389,4.389,0,0,1-.38,1.606l-.668,1.56Zm-2.08,2.875a.942.942,0,0,0-.456-.688,3.986,3.986,0,0,0-.668-.29,2.523,2.523,0,0,0-.668-.184h-.334a1.848,1.848,0,0,0,1.7,1.162Zm.015-4.91a1.772,1.772,0,0,0-.076-.443,7.45,7.45,0,0,0-1.974,2.1h.106a3.577,3.577,0,0,0,.9-.367,3.914,3.914,0,0,0,.866-.5,1.123,1.123,0,0,0,.182-.78" transform="translate(-226.32 -491.48)" fill="#fff"/>
        <path id="Path_59514" data-name="Path 59514" d="M331.8,502.893a2.538,2.538,0,0,1-.418,1.109,3,3,0,0,1-.752.956l-3.037-1.132q-.076-.03-.2.153-.167.352-.334.688-.243.5-.456.5h-.941v-2.141h1.154a1.161,1.161,0,0,0,.2-.4,4.884,4.884,0,0,1,1.4-2,3.229,3.229,0,0,1,2.156-1.009.408.408,0,0,1,.364.138,1.434,1.434,0,0,1,.152.4q.213.688.425,1.392a5.449,5.449,0,0,1,.289,1.346m-1.853-.459q-.152-.52-.167-.566-.152-.382-.38-.382a1.71,1.71,0,0,0-.82.352Z" transform="translate(-244.472 -493.716)" fill="#fff"/>
        <path id="Path_59515" data-name="Path 59515" d="M359.55,516.774a.734.734,0,0,1,.572.274.912.912,0,0,1,.223.6.761.761,0,0,1-.466.725.842.842,0,0,1-.376.093.734.734,0,0,1-.572-.274.915.915,0,0,1-.223-.6.76.76,0,0,1,.466-.725.848.848,0,0,1,.376-.092" transform="translate(-269.277 -506.594)" fill="#fff"/>
        <path id="Path_59516" data-name="Path 59516" d="M371.754,516.774a.734.734,0,0,1,.572.274.912.912,0,0,1,.223.6.761.761,0,0,1-.466.725.842.842,0,0,1-.376.093.734.734,0,0,1-.572-.274.915.915,0,0,1-.223-.6.76.76,0,0,1,.466-.725.847.847,0,0,1,.376-.092" transform="translate(-278.438 -506.594)" fill="#fff"/>
        <path id="Path_59517" data-name="Path 59517" d="M383.958,516.774a.734.734,0,0,1,.572.274.912.912,0,0,1,.223.6.761.761,0,0,1-.466.725.842.842,0,0,1-.376.093.734.734,0,0,1-.572-.274.915.915,0,0,1-.223-.6.76.76,0,0,1,.466-.725.848.848,0,0,1,.376-.092" transform="translate(-287.6 -506.594)" fill="#fff"/>
      </g>
    </g>
  </g>
</svg>
